<svg xmlns="http://www.w3.org/2000/svg" xmlns:xlink="http://www.w3.org/1999/xlink" width="500" zoomAndPan="magnify" viewBox="0 0 375 225" height="300" preserveAspectRatio="xMidYMid meet" version="1.2"><defs/><g id="1b25f2a6a3"><g style="fill:#171716;fill-opacity:1;"><g transform="translate(8.732494, 140.229931)"><path style="stroke:none" d="M 41.796875 -79.515625 C 46.722656 -79.515625 51.34375 -78.488281 55.65625 -76.4375 C 59.976562 -74.394531 63.785156 -71.535156 67.078125 -67.859375 C 70.367188 -64.191406 72.941406 -59.953125 74.796875 -55.140625 C 76.648438 -50.335938 77.578125 -45.210938 77.578125 -39.765625 C 77.578125 -34.304688 76.648438 -29.171875 74.796875 -24.359375 C 72.941406 -19.554688 70.367188 -15.316406 67.078125 -11.640625 C 63.785156 -7.972656 59.976562 -5.113281 55.65625 -3.0625 C 51.34375 -1.019531 46.722656 0 41.796875 0 L 3.40625 0 L 3.40625 -0.6875 C 5.300781 -0.6875 6.910156 -1.347656 8.234375 -2.671875 C 9.554688 -3.992188 10.21875 -5.601562 10.21875 -7.5 L 10.21875 -72.015625 C 10.21875 -73.910156 9.554688 -75.519531 8.234375 -76.84375 C 6.910156 -78.164062 5.300781 -78.828125 3.40625 -78.828125 L 3.40625 -79.515625 Z M 33.734375 -0.6875 C 36.835938 -0.6875 39.753906 -1.6875 42.484375 -3.6875 C 45.210938 -5.695312 47.617188 -8.5 49.703125 -12.09375 C 51.785156 -15.695312 53.410156 -19.863281 54.578125 -24.59375 C 55.753906 -29.320312 56.34375 -34.378906 56.34375 -39.765625 C 56.34375 -45.140625 55.753906 -50.191406 54.578125 -54.921875 C 53.410156 -59.648438 51.785156 -63.8125 49.703125 -67.40625 C 47.617188 -71.007812 45.210938 -73.8125 42.484375 -75.8125 C 39.753906 -77.820312 36.835938 -78.828125 33.734375 -78.828125 L 30.21875 -78.828125 L 30.21875 -0.6875 Z M 33.734375 -0.6875 "/></g></g><g style="fill:#171716;fill-opacity:1;"><g transform="translate(84.374607, 140.229931)"><path style="stroke:none" d="M 39.53125 -7.265625 C 41.726562 -7.265625 43.828125 -7.796875 45.828125 -8.859375 C 47.835938 -9.921875 49.640625 -11.398438 51.234375 -13.296875 L 51.796875 -12.953125 C 49.523438 -8.859375 46.457031 -5.582031 42.59375 -3.125 C 38.726562 -0.664062 34.488281 0.5625 29.875 0.5625 C 25.101562 0.5625 20.765625 -0.722656 16.859375 -3.296875 C 12.960938 -5.867188 9.835938 -9.332031 7.484375 -13.6875 C 5.140625 -18.039062 3.96875 -22.867188 3.96875 -28.171875 C 3.96875 -33.472656 5.140625 -38.300781 7.484375 -42.65625 C 9.835938 -47.007812 12.960938 -50.472656 16.859375 -53.046875 C 20.765625 -55.617188 25.101562 -56.90625 29.875 -56.90625 C 34.039062 -56.90625 37.769531 -55.921875 41.0625 -53.953125 C 44.351562 -51.984375 47.113281 -49.3125 49.34375 -45.9375 C 51.582031 -42.570312 53.117188 -38.734375 53.953125 -34.421875 L 21.015625 -34.421875 C 21.015625 -29.421875 21.847656 -24.859375 23.515625 -20.734375 C 25.179688 -16.609375 27.414062 -13.332031 30.21875 -10.90625 C 33.019531 -8.476562 36.125 -7.265625 39.53125 -7.265625 Z M 29.875 -56.234375 C 28.28125 -56.234375 26.972656 -55.644531 25.953125 -54.46875 C 24.929688 -53.289062 24.078125 -51.773438 23.390625 -49.921875 C 22.710938 -48.066406 22.222656 -46.15625 21.921875 -44.1875 C 21.617188 -42.21875 21.390625 -40.398438 21.234375 -38.734375 C 21.085938 -37.066406 21.015625 -35.851562 21.015625 -35.09375 L 38.515625 -35.09375 C 37.828125 -49.1875 34.945312 -56.234375 29.875 -56.234375 Z M 29.875 -56.234375 "/></g></g><g style="fill:#171716;fill-opacity:1;"><g transform="translate(134.688793, 140.229931)"><path style="stroke:none" d="M 46.796875 -15.328125 C 47.023438 -12.378906 46.15625 -9.691406 44.1875 -7.265625 C 42.21875 -4.847656 39.566406 -2.9375 36.234375 -1.53125 C 32.898438 -0.132812 29.265625 0.5625 25.328125 0.5625 C 21.460938 0.5625 17.921875 -0.078125 14.703125 -1.359375 C 11.484375 -2.648438 8.890625 -4.410156 6.921875 -6.640625 C 4.953125 -8.878906 3.96875 -11.398438 3.96875 -14.203125 C 3.96875 -16.617188 4.835938 -18.679688 6.578125 -20.390625 C 8.328125 -22.097656 10.375 -22.953125 12.71875 -22.953125 C 15.144531 -22.953125 17.226562 -22.097656 18.96875 -20.390625 C 20.707031 -18.679688 21.578125 -16.617188 21.578125 -14.203125 C 21.578125 -12.148438 21.140625 -10.578125 20.265625 -9.484375 C 19.398438 -8.390625 18.515625 -7.484375 17.609375 -6.765625 C 16.703125 -6.046875 16.25 -5.191406 16.25 -4.203125 C 16.25 -3.367188 16.664062 -2.570312 17.5 -1.8125 C 18.332031 -1.0625 19.316406 -0.609375 20.453125 -0.453125 C 21.203125 -0.378906 21.914062 -0.300781 22.59375 -0.21875 C 23.28125 -0.144531 24.191406 -0.109375 25.328125 -0.109375 C 27.378906 -0.109375 29.125 -0.828125 30.5625 -2.265625 C 32 -3.710938 32.71875 -5.457031 32.71875 -7.5 C 32.71875 -9.394531 32.015625 -11.226562 30.609375 -13 C 29.210938 -14.78125 27.429688 -16.5625 25.265625 -18.34375 C 23.109375 -20.125 20.800781 -21.957031 18.34375 -23.84375 C 15.882812 -25.738281 13.570312 -27.691406 11.40625 -29.703125 C 9.25 -31.710938 7.46875 -33.867188 6.0625 -36.171875 C 4.664062 -38.484375 3.96875 -40.96875 3.96875 -43.625 C 3.96875 -46.644531 4.988281 -49.140625 7.03125 -51.109375 C 9.082031 -53.085938 11.582031 -54.546875 14.53125 -55.484375 C 17.488281 -56.429688 20.367188 -56.90625 23.171875 -56.90625 C 25.898438 -56.90625 28.191406 -56.640625 30.046875 -56.109375 C 31.898438 -55.578125 33.566406 -55.082031 35.046875 -54.625 C 36.523438 -54.175781 38.054688 -53.992188 39.640625 -54.078125 C 40.242188 -54.148438 40.789062 -54.296875 41.28125 -54.515625 C 41.78125 -54.742188 42.179688 -55.007812 42.484375 -55.3125 L 43.046875 -55.3125 L 43.046875 -36.921875 C 43.046875 -36.921875 42.988281 -36.921875 42.875 -36.921875 C 42.769531 -36.921875 42.640625 -36.921875 42.484375 -36.921875 C 42.023438 -39.191406 41.265625 -41.726562 40.203125 -44.53125 C 39.148438 -47.332031 37.582031 -49.828125 35.5 -52.015625 C 33.414062 -54.210938 30.519531 -55.539062 26.8125 -56 C 24.84375 -56.300781 23.132812 -55.921875 21.6875 -54.859375 C 20.25 -53.804688 19.457031 -52.066406 19.3125 -49.640625 C 19.15625 -47.210938 19.929688 -44.976562 21.640625 -42.9375 C 23.347656 -40.894531 25.523438 -38.867188 28.171875 -36.859375 C 30.816406 -34.847656 33.519531 -32.78125 36.28125 -30.65625 C 39.050781 -28.539062 41.421875 -26.234375 43.390625 -23.734375 C 45.359375 -21.242188 46.492188 -18.441406 46.796875 -15.328125 Z M 46.796875 -15.328125 "/></g></g><g style="fill:#171716;fill-opacity:1;"><g transform="translate(179.096911, 140.229931)"><path style="stroke:none" d="M 58.734375 -30.4375 C 59.253906 -25.21875 58.71875 -20.332031 57.125 -15.78125 C 55.539062 -11.238281 53.175781 -7.507812 50.03125 -4.59375 C 46.894531 -1.6875 43.242188 -0.00390625 39.078125 0.453125 C 36.503906 0.753906 33.984375 0.472656 31.515625 -0.390625 C 29.054688 -1.265625 26.726562 -2.535156 24.53125 -4.203125 L 24.53125 -2.390625 C 24.53125 -1.703125 24.300781 -1.128906 23.84375 -0.671875 C 23.394531 -0.222656 22.832031 0 22.15625 0 L 2.84375 0 L 2.84375 -0.6875 C 4.125 -0.90625 5.21875 -1.546875 6.125 -2.609375 C 7.039062 -3.671875 7.5 -4.882812 7.5 -6.25 L 7.5 -70.421875 C 7.5 -71.785156 7.039062 -73 6.125 -74.0625 C 5.21875 -75.125 4.125 -75.769531 2.84375 -76 L 2.84375 -76.671875 L 22.265625 -79.515625 C 22.335938 -79.515625 22.390625 -79.515625 22.421875 -79.515625 C 22.460938 -79.515625 22.523438 -79.515625 22.609375 -79.515625 C 23.890625 -79.515625 24.53125 -78.832031 24.53125 -77.46875 L 24.53125 -54.53125 C 26.957031 -55.8125 29.6875 -56.601562 32.71875 -56.90625 C 36.882812 -57.363281 40.859375 -56.457031 44.640625 -54.1875 C 48.429688 -51.914062 51.59375 -48.710938 54.125 -44.578125 C 56.664062 -40.453125 58.203125 -35.738281 58.734375 -30.4375 Z M 28.40625 -4.203125 C 30.894531 -4.203125 33.160156 -5.335938 35.203125 -7.609375 C 37.253906 -9.878906 38.882812 -12.925781 40.09375 -16.75 C 41.3125 -20.570312 41.921875 -24.796875 41.921875 -29.421875 C 41.921875 -34.117188 41.3125 -38.359375 40.09375 -42.140625 C 38.882812 -45.929688 37.253906 -48.960938 35.203125 -51.234375 C 33.160156 -53.503906 30.894531 -54.640625 28.40625 -54.640625 C 27.1875 -54.640625 25.894531 -54.335938 24.53125 -53.734375 L 24.53125 -5.109375 C 25.894531 -4.503906 27.1875 -4.203125 28.40625 -4.203125 Z M 28.40625 -4.203125 "/></g></g><g style="fill:#171716;fill-opacity:1;"><g transform="translate(235.544318, 140.229931)"><path style="stroke:none" d="M 29.875 -56.90625 C 34.644531 -56.90625 38.976562 -55.617188 42.875 -53.046875 C 46.78125 -50.472656 49.90625 -47.007812 52.25 -42.65625 C 54.601562 -38.300781 55.78125 -33.472656 55.78125 -28.171875 C 55.78125 -22.867188 54.601562 -18.039062 52.25 -13.6875 C 49.90625 -9.332031 46.78125 -5.867188 42.875 -3.296875 C 38.976562 -0.722656 34.644531 0.5625 29.875 0.5625 C 25.101562 0.5625 20.765625 -0.722656 16.859375 -3.296875 C 12.960938 -5.867188 9.835938 -9.332031 7.484375 -13.6875 C 5.140625 -18.039062 3.96875 -22.867188 3.96875 -28.171875 C 3.96875 -33.472656 5.140625 -38.300781 7.484375 -42.65625 C 9.835938 -47.007812 12.960938 -50.472656 16.859375 -53.046875 C 20.765625 -55.617188 25.101562 -56.90625 29.875 -56.90625 Z M 29.875 -0.109375 C 35.707031 -0.109375 38.625 -9.460938 38.625 -28.171875 C 38.625 -46.878906 35.707031 -56.234375 29.875 -56.234375 C 23.96875 -56.234375 21.015625 -46.878906 21.015625 -28.171875 C 21.015625 -9.460938 23.96875 -0.109375 29.875 -0.109375 Z M 29.875 -0.109375 "/></g></g><g style="fill:#171716;fill-opacity:1;"><g transform="translate(288.811516, 140.229931)"><path style="stroke:none" d="M 7.5 -6.25 L 7.5 -46.6875 C 7.5 -48.125 7.039062 -49.351562 6.125 -50.375 C 5.21875 -51.394531 4.125 -52.019531 2.84375 -52.25 L 2.84375 -52.9375 L 22.265625 -55.78125 C 22.335938 -55.78125 22.390625 -55.78125 22.421875 -55.78125 C 22.460938 -55.78125 22.523438 -55.78125 22.609375 -55.78125 C 23.890625 -55.78125 24.53125 -55.132812 24.53125 -53.84375 L 24.53125 -6.25 C 24.53125 -4.882812 24.984375 -3.671875 25.890625 -2.609375 C 26.804688 -1.546875 27.90625 -0.90625 29.1875 -0.6875 L 29.1875 0 L 2.84375 0 L 2.84375 -0.6875 C 4.125 -0.90625 5.21875 -1.546875 6.125 -2.609375 C 7.039062 -3.671875 7.5 -4.882812 7.5 -6.25 Z M 24.875 -70.65625 C 24.875 -68.3125 24.003906 -66.265625 22.265625 -64.515625 C 20.523438 -62.773438 18.441406 -61.90625 16.015625 -61.90625 C 13.585938 -61.90625 11.519531 -62.773438 9.8125 -64.515625 C 8.113281 -66.265625 7.265625 -68.3125 7.265625 -70.65625 C 7.265625 -73.082031 8.113281 -75.164062 9.8125 -76.90625 C 11.519531 -78.644531 13.585938 -79.515625 16.015625 -79.515625 C 18.441406 -79.515625 20.523438 -78.644531 22.265625 -76.90625 C 24.003906 -75.164062 24.875 -73.082031 24.875 -70.65625 Z M 24.875 -70.65625 "/></g></g><g style="fill:#171716;fill-opacity:1;"><g transform="translate(314.365664, 140.229931)"><path style="stroke:none" d="M 46.796875 -15.328125 C 47.023438 -12.378906 46.15625 -9.691406 44.1875 -7.265625 C 42.21875 -4.847656 39.566406 -2.9375 36.234375 -1.53125 C 32.898438 -0.132812 29.265625 0.5625 25.328125 0.5625 C 21.460938 0.5625 17.921875 -0.078125 14.703125 -1.359375 C 11.484375 -2.648438 8.890625 -4.410156 6.921875 -6.640625 C 4.953125 -8.878906 3.96875 -11.398438 3.96875 -14.203125 C 3.96875 -16.617188 4.835938 -18.679688 6.578125 -20.390625 C 8.328125 -22.097656 10.375 -22.953125 12.71875 -22.953125 C 15.144531 -22.953125 17.226562 -22.097656 18.96875 -20.390625 C 20.707031 -18.679688 21.578125 -16.617188 21.578125 -14.203125 C 21.578125 -12.148438 21.140625 -10.578125 20.265625 -9.484375 C 19.398438 -8.390625 18.515625 -7.484375 17.609375 -6.765625 C 16.703125 -6.046875 16.25 -5.191406 16.25 -4.203125 C 16.25 -3.367188 16.664062 -2.570312 17.5 -1.8125 C 18.332031 -1.0625 19.316406 -0.609375 20.453125 -0.453125 C 21.203125 -0.378906 21.914062 -0.300781 22.59375 -0.21875 C 23.28125 -0.144531 24.191406 -0.109375 25.328125 -0.109375 C 27.378906 -0.109375 29.125 -0.828125 30.5625 -2.265625 C 32 -3.710938 32.71875 -5.457031 32.71875 -7.5 C 32.71875 -9.394531 32.015625 -11.226562 30.609375 -13 C 29.210938 -14.78125 27.429688 -16.5625 25.265625 -18.34375 C 23.109375 -20.125 20.800781 -21.957031 18.34375 -23.84375 C 15.882812 -25.738281 13.570312 -27.691406 11.40625 -29.703125 C 9.25 -31.710938 7.46875 -33.867188 6.0625 -36.171875 C 4.664062 -38.484375 3.96875 -40.96875 3.96875 -43.625 C 3.96875 -46.644531 4.988281 -49.140625 7.03125 -51.109375 C 9.082031 -53.085938 11.582031 -54.546875 14.53125 -55.484375 C 17.488281 -56.429688 20.367188 -56.90625 23.171875 -56.90625 C 25.898438 -56.90625 28.191406 -56.640625 30.046875 -56.109375 C 31.898438 -55.578125 33.566406 -55.082031 35.046875 -54.625 C 36.523438 -54.175781 38.054688 -53.992188 39.640625 -54.078125 C 40.242188 -54.148438 40.789062 -54.296875 41.28125 -54.515625 C 41.78125 -54.742188 42.179688 -55.007812 42.484375 -55.3125 L 43.046875 -55.3125 L 43.046875 -36.921875 C 43.046875 -36.921875 42.988281 -36.921875 42.875 -36.921875 C 42.769531 -36.921875 42.640625 -36.921875 42.484375 -36.921875 C 42.023438 -39.191406 41.265625 -41.726562 40.203125 -44.53125 C 39.148438 -47.332031 37.582031 -49.828125 35.5 -52.015625 C 33.414062 -54.210938 30.519531 -55.539062 26.8125 -56 C 24.84375 -56.300781 23.132812 -55.921875 21.6875 -54.859375 C 20.25 -53.804688 19.457031 -52.066406 19.3125 -49.640625 C 19.15625 -47.210938 19.929688 -44.976562 21.640625 -42.9375 C 23.347656 -40.894531 25.523438 -38.867188 28.171875 -36.859375 C 30.816406 -34.847656 33.519531 -32.78125 36.28125 -30.65625 C 39.050781 -28.539062 41.421875 -26.234375 43.390625 -23.734375 C 45.359375 -21.242188 46.492188 -18.441406 46.796875 -15.328125 Z M 46.796875 -15.328125 "/></g></g><g style="fill:#171716;fill-opacity:1;"><g transform="translate(43.323269, 160.204261)"><path style="stroke:none" d="M 4.890625 -8.875 C 5.671875 -8.875 6.351562 -8.738281 6.9375 -8.46875 C 7.519531 -8.207031 7.96875 -7.835938 8.28125 -7.359375 C 8.59375 -6.878906 8.75 -6.3125 8.75 -5.65625 C 8.75 -5 8.59375 -4.425781 8.28125 -3.9375 C 7.96875 -3.457031 7.519531 -3.085938 6.9375 -2.828125 C 6.351562 -2.578125 5.671875 -2.453125 4.890625 -2.453125 L 3.109375 -2.453125 L 3.109375 0 L 1.046875 0 L 1.046875 -8.875 Z M 4.78125 -4.125 C 5.394531 -4.125 5.863281 -4.253906 6.1875 -4.515625 C 6.507812 -4.785156 6.671875 -5.164062 6.671875 -5.65625 C 6.671875 -6.15625 6.507812 -6.535156 6.1875 -6.796875 C 5.863281 -7.066406 5.394531 -7.203125 4.78125 -7.203125 L 3.109375 -7.203125 L 3.109375 -4.125 Z M 4.78125 -4.125 "/></g></g><g style="fill:#171716;fill-opacity:1;"><g transform="translate(57.432815, 160.204261)"><path style="stroke:none" d="M 9.1875 -8.875 L 9.1875 0 L 7.140625 0 L 7.140625 -3.640625 L 3.109375 -3.640625 L 3.109375 0 L 1.046875 0 L 1.046875 -8.875 L 3.109375 -8.875 L 3.109375 -5.375 L 7.140625 -5.375 L 7.140625 -8.875 Z M 9.1875 -8.875 "/></g></g><g style="fill:#171716;fill-opacity:1;"><g transform="translate(72.504576, 160.204261)"><path style="stroke:none" d="M 5.34375 0.15625 C 4.425781 0.15625 3.597656 -0.0390625 2.859375 -0.4375 C 2.117188 -0.84375 1.539062 -1.390625 1.125 -2.078125 C 0.707031 -2.773438 0.5 -3.5625 0.5 -4.4375 C 0.5 -5.300781 0.707031 -6.082031 1.125 -6.78125 C 1.539062 -7.476562 2.117188 -8.023438 2.859375 -8.421875 C 3.597656 -8.816406 4.425781 -9.015625 5.34375 -9.015625 C 6.269531 -9.015625 7.097656 -8.816406 7.828125 -8.421875 C 8.566406 -8.023438 9.144531 -7.476562 9.5625 -6.78125 C 9.988281 -6.082031 10.203125 -5.300781 10.203125 -4.4375 C 10.203125 -3.5625 9.988281 -2.773438 9.5625 -2.078125 C 9.144531 -1.390625 8.566406 -0.84375 7.828125 -0.4375 C 7.097656 -0.0390625 6.269531 0.15625 5.34375 0.15625 Z M 5.34375 -1.59375 C 5.875 -1.59375 6.347656 -1.710938 6.765625 -1.953125 C 7.191406 -2.191406 7.523438 -2.523438 7.765625 -2.953125 C 8.003906 -3.390625 8.125 -3.882812 8.125 -4.4375 C 8.125 -4.988281 8.003906 -5.476562 7.765625 -5.90625 C 7.523438 -6.332031 7.191406 -6.664062 6.765625 -6.90625 C 6.347656 -7.15625 5.875 -7.28125 5.34375 -7.28125 C 4.820312 -7.28125 4.347656 -7.15625 3.921875 -6.90625 C 3.503906 -6.664062 3.175781 -6.332031 2.9375 -5.90625 C 2.695312 -5.476562 2.578125 -4.988281 2.578125 -4.4375 C 2.578125 -3.882812 2.695312 -3.390625 2.9375 -2.953125 C 3.175781 -2.523438 3.503906 -2.191406 3.921875 -1.953125 C 4.347656 -1.710938 4.820312 -1.59375 5.34375 -1.59375 Z M 5.34375 -1.59375 "/></g></g><g style="fill:#171716;fill-opacity:1;"><g transform="translate(88.032108, 160.204261)"><path style="stroke:none" d="M 2.890625 -7.203125 L 0.046875 -7.203125 L 0.046875 -8.875 L 7.78125 -8.875 L 7.78125 -7.203125 L 4.9375 -7.203125 L 4.9375 0 L 2.890625 0 Z M 2.890625 -7.203125 "/></g></g><g style="fill:#171716;fill-opacity:1;"><g transform="translate(100.698352, 160.204261)"><path style="stroke:none" d="M 5.34375 0.15625 C 4.425781 0.15625 3.597656 -0.0390625 2.859375 -0.4375 C 2.117188 -0.84375 1.539062 -1.390625 1.125 -2.078125 C 0.707031 -2.773438 0.5 -3.5625 0.5 -4.4375 C 0.5 -5.300781 0.707031 -6.082031 1.125 -6.78125 C 1.539062 -7.476562 2.117188 -8.023438 2.859375 -8.421875 C 3.597656 -8.816406 4.425781 -9.015625 5.34375 -9.015625 C 6.269531 -9.015625 7.097656 -8.816406 7.828125 -8.421875 C 8.566406 -8.023438 9.144531 -7.476562 9.5625 -6.78125 C 9.988281 -6.082031 10.203125 -5.300781 10.203125 -4.4375 C 10.203125 -3.5625 9.988281 -2.773438 9.5625 -2.078125 C 9.144531 -1.390625 8.566406 -0.84375 7.828125 -0.4375 C 7.097656 -0.0390625 6.269531 0.15625 5.34375 0.15625 Z M 5.34375 -1.59375 C 5.875 -1.59375 6.347656 -1.710938 6.765625 -1.953125 C 7.191406 -2.191406 7.523438 -2.523438 7.765625 -2.953125 C 8.003906 -3.390625 8.125 -3.882812 8.125 -4.4375 C 8.125 -4.988281 8.003906 -5.476562 7.765625 -5.90625 C 7.523438 -6.332031 7.191406 -6.664062 6.765625 -6.90625 C 6.347656 -7.15625 5.875 -7.28125 5.34375 -7.28125 C 4.820312 -7.28125 4.347656 -7.15625 3.921875 -6.90625 C 3.503906 -6.664062 3.175781 -6.332031 2.9375 -5.90625 C 2.695312 -5.476562 2.578125 -4.988281 2.578125 -4.4375 C 2.578125 -3.882812 2.695312 -3.390625 2.9375 -2.953125 C 3.175781 -2.523438 3.503906 -2.191406 3.921875 -1.953125 C 4.347656 -1.710938 4.820312 -1.59375 5.34375 -1.59375 Z M 5.34375 -1.59375 "/></g></g></g></svg>